HIERARCHY
ROOT Hips
{
	OFFSET 0.00000 0.00000 0.00000
	CHANNELS 6 Xposition Yposition Zposition Yrotation Zrotation Xrotation 
	JOINT Lumbar
	{
		OFFSET 0 0 0
		CHANNELS 3 Zrotation Xrotation Yrotation
		JOINT Neck
		{
			OFFSET 0.00 0.2701 0.00
			CHANNELS 3 Zrotation Xrotation Yrotation
			End Site
			{
				OFFSET 0.00 0.1379 0.00
			}
		}
		JOINT RightShoulder
		{
			OFFSET 0.0119 0.2289 0.1181
			CHANNELS 3 Zrotation Xrotation Yrotation
			JOINT RightElbow
			{
				OFFSET 0.00 -0.1475 0.00
				CHANNELS 2 Zrotation Yrotation
				JOINT RightWrist
				{
					OFFSET 0.00 -0.1605 0.00
					CHANNELS 2 Zrotation Xrotation
					End Site
					{
						OFFSET 0.0040 -0.1068 0.0006
					}
				}
			}
		}
		JOINT LeftShoulder
		{
			OFFSET 0.0119 0.2289 -0.1181
			CHANNELS 3 Zrotation Xrotation Yrotation
			JOINT LeftElbow
			{
				OFFSET 0.00 -0.1475 0.00
				CHANNELS 2 Zrotation Yrotation
				JOINT LeftWrist
				{
					OFFSET 0.00 -0.1605 0.00
					CHANNELS 2 Zrotation Xrotation
					End Site
					{
						OFFSET 0.0040 -0.1068 -0.0006
					}
				}
			}
		}
	}
	JOINT RightHip
	{
		OFFSET 0.0316 -0.0424 0.0458
		CHANNELS 3 Zrotation Xrotation Yrotation
		JOINT RightKnee
		{
			OFFSET 0.00 -0.2438 0.00
			CHANNELS 1 Zrotation
			JOINT RightAnkle
			{
				OFFSET 0.00 -0.2449 0.00
				CHANNELS 3 Zrotation Xrotation Yrotation
				End Site
				{
					OFFSET 0.1237 -0.0542 0.0051
				}
			}
		}
	}
	JOINT LeftHip
	{
		OFFSET 0.0316 -0.0424 -0.0458
		CHANNELS 3 Zrotation Xrotation Yrotation
		JOINT LeftKnee
		{
			OFFSET 0.00 -0.2438 0.00
			CHANNELS 1 Zrotation
			JOINT LeftAnkle
			{
				OFFSET 0.00 -0.2449 0.00
				CHANNELS 3 Zrotation Xrotation Yrotation
				End Site
				{
					OFFSET 0.1237 -0.0542 -0.0051
				}
			}
		}
	}
}
MOTION
Frames: 17
Frame Time: 0.02
-0.31226 0.57704 -0.22685 239.62247 0 -7.67764 -2.41125 3.82949 -3.49626 -28.88426 1.85774 0.98473 21.5846 -36.17353 -17.79152 89.87003 90.04883 47.81969 -1.94986 58.59791 15.08227 -38.66661 111.5069 -35.93168 -39.20788 -3.61745 14.33273 3.3393 -12.08254 -26.31052 1.59207 -4.18232 -8.64463 -0.06236 2.23736 8.14753 -6.96263 7.12429 4.70286 6.49964
-0.31275 0.577 -0.22572 239.6782 0 -7.62308 -2.2546 3.69159 -3.86559 -28.91472 2.0833 0.87916 21.86196 -35.75781 -16.15495 87.29533 83.57029 52.12523 -3.10832 58.31772 15.05713 -38.47244 111.09192 -36.06814 -38.90057 -3.61264 14.02152 4.08878 -11.74757 -25.38882 1.99008 -4.04982 -7.89324 -0.13904 2.22867 8.4638 -7.09301 7.37567 4.55843 6.05756
-0.31366 0.57701 -0.22432 239.77894 0 -7.58039 -2.0231 3.54183 -4.29661 -28.83872 2.34254 0.76661 22.5548 -35.43864 -13.23193 83.73294 71.55476 52.95726 -3.95662 57.87838 15.02661 -38.29459 110.52228 -36.3271 -38.48504 -3.58655 13.43666 4.96768 -11.04204 -23.95553 2.19588 -3.81309 -7.18703 -0.22704 2.26414 8.76246 -7.28623 7.66726 4.38256 5.57382
-0.31438 0.57698 -0.22303 239.84606 0 -7.53322 -1.82076 3.40452 -4.68857 -28.81731 2.57778 0.66114 23.05352 -35.0821 -10.91175 80.80675 62.39427 54.89764 -4.84804 57.52221 15.00223 -38.11284 110.02577 -36.51763 -38.13263 -3.57198 12.97568 5.78151 -10.48561 -22.76559 2.4728 -3.62948 -6.4776 -0.30359 2.28333 9.10572 -7.46945 7.9513 4.20947 5.09225
-0.31509 0.57701 -0.22182 239.96592 0 -7.48138 -1.63706 3.23419 -5.1295 -28.77321 2.8551 0.5434 23.59156 -34.70256 -8.50912 77.09538 51.91188 58.8011 -6.15741 57.12025 14.95594 -37.91225 109.51061 -36.76059 -37.7194 -3.55025 12.51306 6.62587 -10.00311 -21.52095 2.8215 -3.42218 -5.67889 -0.40773 2.28692 9.30931 -7.57414 8.19298 4.08064 4.67224
-0.31593 0.57694 -0.22037 239.98834 0 -7.44214 -1.39822 3.13206 -5.4807 -28.74832 3.04912 0.44656 24.14123 -34.38583 -5.98211 74.77341 42.85031 57.90832 -6.54113 56.775 14.95701 -37.75724 108.99978 -36.92469 -37.40647 -3.53811 11.99096 7.43349 -9.28398 -20.27443 2.97597 -3.23954 -5.0829 -0.45631 2.33267 9.78709 -7.85794 8.52974 3.85704 4.12291
-0.31704 0.57659 -0.21831 239.72341 0 -7.438 -1.01627 3.20872 -5.58719 -28.82033 3.02516 0.42697 24.60679 -34.29938 -3.32909 76.64812 38.77428 43.21507 -4.18644 56.63645 15.08213 -37.71324 108.54219 -36.8323 -37.4149 -3.55791 11.36307 8.13662 -7.97232 -19.12019 2.61377 -3.14653 -5.03754 -0.35216 2.49294 11.11157 -8.61685 9.13862 3.3386 3.16037
-0.31826 0.57615 -0.21601 239.36088 0 -7.44576 -0.58335 3.35686 -5.59807 -28.91201 2.91246 0.42551 25.07134 -34.25997 -0.60802 79.93576 36.35683 24.02429 -0.95144 56.55879 15.25671 -37.71727 108.09415 -36.65799 -37.52535 -3.58797 10.68688 8.79287 -6.44225 -17.988 2.06697 -3.08244 -5.19621 -0.18997 2.69296 12.69601 -9.55633 9.83794 2.7328 2.08092
-0.31943 0.57576 -0.21382 239.04766 0 -7.44601 -0.17978 3.48098 -5.64023 -28.98244 2.82588 0.403 25.54127 -34.14435 2.01204 82.49705 33.34962 7.8489 1.71061 56.44573 15.41558 -37.70648 107.64109 -36.52711 -37.57759 -3.61307 10.03859 9.45151 -5.03144 -16.86452 1.62185 -3.00769 -5.26307 -0.05327 2.86841 14.10414 -10.41345 10.48305 2.1949 1.1003
-0.32064 0.57535 -0.21163 238.71357 0 -7.45517 0.25292 3.56972 -5.73451 -29.10015 2.79829 0.4321 25.99889 -34.25616 4.95203 85.3713 29.44993 -12.38932 5.09795 56.35859 15.54842 -37.66549 107.18739 -36.3746 -37.67522 -3.63866 9.35502 10.19417 -3.52018 -15.64316 1.09521 -2.91924 -5.32902 0.07517 3.07095 15.75607 -11.26664 11.18519 1.54015 -0.07044
-0.32178 0.57495 -0.20938 238.40104 0 -7.44888 0.63558 3.74829 -5.69854 -29.12673 2.62909 0.36094 26.48443 -33.91344 7.25113 87.95231 27.88647 -25.38641 7.19846 56.23541 15.74376 -37.70004 106.73684 -36.24573 -37.70493 -3.66598 8.73773 10.74947 -2.17485 -14.63868 0.69679 -2.86706 -5.44267 0.23993 3.22831 16.96377 -12.17937 11.78917 1.10432 -0.87782
-0.32274 0.57463 -0.20701 238.1558 0 -7.39333 0.87129 4.16569 -5.31044 -28.8864 2.06668 -0.01557 26.97709 -32.22458 7.53057 89.29035 32.27887 -15.5356 5.3673 55.98648 16.12984 -37.91896 106.31586 -36.20499 -37.51511 -3.6954 8.31081 10.79393 -1.3103 -14.22101 0.69992 -2.9126 -5.65771 0.44657 3.23117 16.86538 -13.13168 12.1023 1.3289 -0.60745
-0.32364 0.57434 -0.20459 237.93816 0 -7.3224 1.05381 4.66925 -4.79734 -28.5565 1.36942 -0.48883 27.50954 -30.09144 7.19718 90.30214 39.00071 1.47543 2.23883 55.70207 16.57125 -38.21418 105.8949 -36.18982 -37.25564 -3.72629 7.9544 10.65169 -0.62731 -14.02457 0.83888 -2.99339 -5.91044 0.69602 3.19094 16.31319 -14.15173 12.31286 1.76967 0.02341
-0.32458 0.57403 -0.20221 237.71854 0 -7.2609 1.25786 5.12837 -4.35138 -28.27458 0.749 -0.90232 28.06676 -28.2128 7.29417 91.53045 44.75324 14.04136 -0.18932 55.44219 16.9678 -38.48299 105.4586 -36.16036 -37.03283 -3.75685 7.57009 10.59754 0.11594 -13.73399 0.91514 -3.05536 -6.13219 0.95502 3.18304 15.98013 -15.19424 12.56867 2.09006 0.46053
-0.32549 0.57371 -0.19976 237.45196 0 -7.18968 1.47485 5.61351 -3.85797 -27.96116 0.05856 -1.38296 28.44039 -26.11207 6.76385 92.53456 50.21848 31.36321 -3.05076 55.14898 17.45029 -38.71995 105.08433 -36.13903 -36.79099 -3.78665 7.1667 10.52827 0.95854 -13.41731 0.98924 -3.12965 -6.41727 1.09385 3.12179 15.60483 -16.02117 12.8335 2.50433 1.02349
-0.32642 0.57344 -0.19745 237.28977 0 -7.13471 1.65165 6.06248 -3.4356 -27.69361 -0.51533 -1.74561 29.20945 -24.37 7.38014 93.89071 56.76993 40.68102 -5.33351 54.91582 17.76506 -39.03905 104.58443 -36.10834 -36.57267 -3.81786 6.82012 10.4466 1.55127 -13.20671 1.10217 -3.18684 -6.57958 1.49208 3.16211 15.20243 -17.30727 13.0539 2.77117 1.40688
-0.32741 0.57326 -0.19555 237.41984 0 -7.12947 1.72933 6.40268 -3.23421 -27.55965 -0.74766 -1.77024 31.027 -23.70852 11.42314 96.45774 66.13489 24.93839 -5.66908 54.85867 17.61399 -39.58042 103.70545 -36.04154 -36.42019 -3.85597 6.61707 10.37713 1.46997 -13.24106 1.29327 -3.18343 -6.36774 2.59716 3.48272 14.86801 -19.87011 13.17684 2.61923 1.25023
